<svg width="27" height="28" viewBox="0 0 27 28" fill="white" xmlns="http://www.w3.org/2000/svg">
<path fill-rule="evenodd" clip-rule="evenodd" d="M8.86054 2.07153V9.91215L11.3997 12.2426C11.8641 12.6569 12.2667 13.4596 12.2667 14.0292V25.9285C12.2667 27.0679 11.121 28 9.72756 28H3.03913C1.6457 28 0.5 27.0679 0.5 25.9285V14.0292C0.5 13.4596 0.902545 12.6569 1.36702 12.2685L3.90615 9.91215V2.07153H8.86054ZM9.72755 26.9642C10.4397 26.9642 11.0281 26.4981 11.0281 25.9284H11.059V14.055C11.059 13.7443 10.7804 13.2005 10.5326 12.9934L10.5017 12.9675L10.4707 12.9416L7.93158 10.5853L7.62193 10.3004V9.91204V3.10718H5.14473V9.91204V10.3004L4.83508 10.5853L2.32692 12.9157L2.29596 12.9416L2.26499 12.9675C1.98631 13.2005 1.73859 13.7184 1.73859 14.0291V25.9284C1.73859 26.4981 2.32692 26.9642 3.03912 26.9642H9.72755Z" fill="#828487"/>
<path d="M4.2902 1.03575H8.62529C8.96591 1.03575 9.24459 0.802705 9.24459 0.517874C9.24459 0.233043 8.96591 0 8.62529 0H4.2902C3.94958 0 3.6709 0.233043 3.6709 0.517874C3.6709 0.802705 3.94958 1.03575 4.2902 1.03575Z" fill="#828487"/>
<path fill-rule="evenodd" clip-rule="evenodd" d="M4.21577 15.4431H8.55087C9.2321 15.4431 9.78947 15.9092 9.78947 16.4789V21.9165C9.78947 22.4862 9.2321 22.9523 8.55087 22.9523H4.21577C3.53454 22.9523 2.97717 22.4862 2.97717 21.9165V16.4789C2.97717 15.9092 3.53454 15.4431 4.21577 15.4431ZM4.21576 21.9164H8.55086V16.4788H4.21576V21.9164Z" fill="#828487"/>
<path fill-rule="evenodd" clip-rule="evenodd" d="M23.9094 10.8665C23.7546 10.6075 23.3211 10.4263 22.9805 10.4263H17.0042C16.6636 10.4263 16.2301 10.6334 16.0753 10.8665C16.0299 10.9375 15.9804 11.0143 15.9273 11.0965C14.5697 13.2015 10.9337 18.839 16.4469 21.5554C16.6922 21.6807 16.9555 21.786 17.2183 21.8912L17.2184 21.8912C17.5527 22.0249 17.8862 22.1582 18.1809 22.3322C18.6144 22.5911 19.1099 22.9795 19.3576 23.4456V26.6461H17.4997C17.1591 26.6461 16.8804 26.8791 16.8804 27.164C16.8804 27.4488 17.1591 27.6818 17.4997 27.6818H22.4541C22.7947 27.6818 23.0734 27.4488 23.0734 27.164C23.0734 26.8791 22.7947 26.6461 22.4541 26.6461H20.5962V23.4974C20.8439 23.0054 21.3393 22.6429 21.7728 22.384C22.1104 22.1681 22.4989 22.0162 22.8812 21.8666C23.095 21.783 23.3069 21.7001 23.5069 21.6072C29.0355 18.8877 25.4748 13.3167 24.0903 11.1507C24.0247 11.0481 23.964 10.9531 23.9094 10.8665ZM16.7147 12.1102L16.7147 12.1102C16.8681 11.8733 17.0086 11.6564 17.1282 11.4619H22.8877C23.0266 11.6878 23.2321 11.9851 23.463 12.3192L23.463 12.3192C24.1585 13.3255 25.0846 14.6655 25.1171 15.3926C25.1326 15.4832 25.1481 15.5674 25.1636 15.6515C25.1791 15.7357 25.1946 15.8198 25.21 15.9105L25.1428 15.9223C24.4929 16.0375 22.7257 16.3506 20.0079 16.3506C17.3449 16.3506 15.4251 16.014 14.8058 15.8846C14.8164 15.8311 14.8234 15.7744 14.8305 15.7168C14.8439 15.6067 14.8578 15.4932 14.8987 15.3926C15.4191 14.1114 16.1535 12.9771 16.7147 12.1102ZM22.2993 20.9339C22.5161 20.8562 22.7328 20.7786 22.9186 20.675C24.4669 19.9241 25.241 18.6812 25.3339 16.9463C24.5288 17.1017 22.7019 17.3865 20.0698 17.3865C17.5307 17.3865 15.6419 17.1017 14.8058 16.9463C14.8058 18.6812 15.6109 19.8982 17.1591 20.675C17.2189 20.7 17.2819 20.7277 17.3471 20.7563C17.4845 20.8166 17.6314 20.8812 17.7784 20.9339C17.8446 20.9616 17.9127 20.9892 17.9822 21.0175C18.3034 21.1479 18.6552 21.2907 18.9861 21.5036C19.4196 21.7625 19.7602 22.0473 20.0389 22.3322C20.2866 22.0473 20.6582 21.7625 21.0917 21.5036C21.4942 21.2705 21.9277 21.0893 22.2993 20.9339L22.2993 20.9339Z" fill="#828487"/>
</svg>
